# xmcd
#
# Track frame offsets:
#	150
#	14002
#	29657
#	45455
#	58317
#	75285
#	96895
#	111470
#	123960
#	135510
#	150517
#	161942
#	177630
#	197830
#	213560
#	227370
#	237657
#	250942
#	264042
#	279860
#
# Disc length: 3914 seconds
#
# Revision: 0
# Processed by: cddbd v1.5.2PL0 Copyright (c) Steve Scherf et al.
# Submitted via: EZCDAudioConverter 2.1.5.1
#
DISCID=180f4814
DTITLE=Pirates - Happy Birthday Rock 'N' Roll
DYEAR=1999
DGENRE=
TTITLE0=You Can't Sit Down
TTITLE1=Hey Mary
TTITLE2=Golden Oldies
TTITLE3=Alarmer
TTITLE4=Lady (Put the Light on Me)
TTITLE5=Happy Birthday Rock 'N' Roll
TTITLE6=Going Back Home
TTITLE7=Lemonade
TTITLE8=1.30, 2.30
TTITLE9=Hard Ride
TTITLE10=Mercy Pirates
TTITLE11=Tear it up
TTITLE12=All In It Together
TTITLE13=Witch Queen Of New Orleans
TTITLE14=Cincinatti Fireball
TTITLE15=Then I Got Everything
TTITLE16=Peter Gunn
TTITLE17=Just Another Party
TTITLE18=Something Very Strange
TTITLE19=Cap In Hand
EXTD=
EXTT0=
EXTT1=
EXTT2=
EXTT3=
EXTT4=
EXTT5=
EXTT6=
EXTT7=
EXTT8=
EXTT9=
EXTT10=
EXTT11=
EXTT12=
EXTT13=
EXTT14=
EXTT15=
EXTT16=
EXTT17=
EXTT18=
EXTT19=
PLAYORDER=
